<svg width="661" height="661" xmlns="http://www.w3.org/2000/svg" xmlns:xlink="http://www.w3.org/1999/xlink" xml:space="preserve" overflow="hidden"><defs><clipPath id="clip0"><rect x="2469" y="1672" width="521" height="314"/></clipPath><clipPath id="clip1"><rect x="2469" y="1672" width="521" height="314"/></clipPath><clipPath id="clip2"><path d="M2807.86 1785.85C2804.39 1785.85 2801.63 1788.6 2801.63 1792.06L2801.63 1972.36C2801.63 1975.83 2804.39 1978.58 2807.86 1978.58L2856.12 1978.58C2859.58 1978.58 2862.44 1975.83 2862.44 1972.36L2862.44 1792.17C2862.44 1788.7 2859.58 1785.95 2856.12 1785.95L2807.86 1785.95Z"/></clipPath><linearGradient x1="361.586" y1="113.893" x2="361.586" y2="306.753" gradientUnits="userSpaceOnUse" spreadMethod="pad" id="fill3"><stop offset="0" stop-color="#FFFFFF"/><stop offset="0.00561523" stop-color="#FFFFFF"/><stop offset="0.2526" stop-color="#FCFEFE"/><stop offset="0.4275" stop-color="#F3FAFA"/><stop offset="0.5801" stop-color="#E3F4F4"/><stop offset="0.72" stop-color="#CDECEC"/><stop offset="0.8511" stop-color="#B1E1E1"/><stop offset="0.9742" stop-color="#8ED3D3"/><stop offset="1" stop-color="#86D0D0"/></linearGradient><clipPath id="clip4"><path d="M2660.63 1731.52C2659.1 1736.11 2629.82 1824.47 2616.86 1865.85 2603.7 1824.37 2574.52 1736.11 2573.09 1731.83 2567.28 1710.73 2548.61 1695.95 2527.69 1695.95 2502.9 1695.95 2477.49 1709.2 2476.27 1738.86L2476.27 1972.46C2476.27 1975.93 2479.13 1978.68 2482.59 1978.68L2531.47 1978.68C2534.93 1978.68 2537.69 1975.93 2537.69 1972.46L2537.69 1816.12C2552.69 1865.14 2574.32 1935.06 2577.79 1943.82 2580.85 1951.57 2592.89 1977.05 2616.86 1977.05 2639.92 1977.05 2651.76 1953.81 2655.84 1943.82 2659.41 1935.16 2681.04 1864.73 2695.83 1816.22L2695.83 1972.46C2695.83 1975.93 2698.69 1978.68 2702.16 1978.68L2751.03 1978.68C2754.5 1978.68 2757.35 1975.93 2757.35 1972.46L2757.35 1738.55C2756.23 1709.1 2730.72 1695.85 2705.93 1695.85 2685.02 1695.95 2666.24 1710.73 2660.63 1731.52"/></clipPath><linearGradient x1="146.627" y1="23.9218" x2="146.627" y2="306.756" gradientUnits="userSpaceOnUse" spreadMethod="pad" id="fill5"><stop offset="0" stop-color="#FFFFFF"/><stop offset="0.00561523" stop-color="#FFFFFF"/><stop offset="0.2526" stop-color="#FCFEFE"/><stop offset="0.4275" stop-color="#F3FAFA"/><stop offset="0.5801" stop-color="#E3F4F4"/><stop offset="0.72" stop-color="#CDECEC"/><stop offset="0.8511" stop-color="#B1E1E1"/><stop offset="0.9742" stop-color="#8ED3D3"/><stop offset="1" stop-color="#86D0D0"/></linearGradient><clipPath id="clip6"><path d="M2914.48 1785.85C2911.01 1785.85 2908.25 1788.6 2908.25 1792.06L2908.25 1972.36C2908.25 1975.83 2911.01 1978.58 2914.48 1978.58L2962.84 1978.58C2966.3 1978.58 2969.06 1975.83 2969.06 1972.36L2969.06 1792.17C2969.06 1788.7 2966.3 1785.95 2962.84 1785.95L2914.48 1785.95Z"/></clipPath><linearGradient x1="468.088" y1="113.893" x2="468.088" y2="306.753" gradientUnits="userSpaceOnUse" spreadMethod="pad" id="fill7"><stop offset="0" stop-color="#FFFFFF"/><stop offset="0.00561523" stop-color="#FFFFFF"/><stop offset="0.2526" stop-color="#FCFEFE"/><stop offset="0.4275" stop-color="#F3FAFA"/><stop offset="0.5801" stop-color="#E3F4F4"/><stop offset="0.72" stop-color="#CDECEC"/><stop offset="0.8511" stop-color="#B1E1E1"/><stop offset="0.9742" stop-color="#8ED3D3"/><stop offset="1" stop-color="#86D0D0"/></linearGradient></defs><g transform="translate(-2400 -1498)"><path d="M2405.5 1828.5C2405.5 1649.01 2551.01 1503.5 2730.5 1503.5 2909.99 1503.5 3055.5 1649.01 3055.5 1828.5 3055.5 2007.99 2909.99 2153.5 2730.5 2153.5 2551.01 2153.5 2405.5 2007.99 2405.5 1828.5Z" stroke="#537D80" stroke-width="11.4583" stroke-miterlimit="8" fill="#00D6FF" fill-rule="evenodd"/><g clip-path="url(#clip0)"><g clip-path="url(#clip1)"><g><path d="M531.621 283.749C529.889 283.749 527.952 283.137 527.952 279.876 527.952 277.022 529.481 276.003 531.621 276.003L550.884 276.003C552.617 276.003 554.553 276.614 554.553 279.876 554.553 282.73 553.025 283.749 550.884 283.749L545.584 283.749 545.584 305.254C545.584 306.273 545.483 309.025 541.304 309.025 538.45 309.025 536.819 308.006 536.819 305.254L536.819 283.749 531.621 283.749Z" fill="#537D80" transform="matrix(1.00104 0 0 1 2470.04 1672)"/><path d="M566.173 285.787 566.682 292.31 566.682 305.254C566.682 306.783 566.274 309.025 562.707 309.025 559.446 309.025 558.63 307.395 558.63 305.254L558.63 279.264C558.63 276.614 559.955 275.187 563.726 275.187 568.007 275.187 569.944 275.697 570.453 279.264L574.021 300.464C574.122 301.075 574.224 301.177 574.428 301.177 574.632 301.177 574.734 300.973 574.836 300.464L578.403 279.264C578.913 276.105 580.442 275.187 584.416 275.187 588.086 275.187 590.328 275.697 590.328 279.264L590.328 305.254C590.328 306.273 590.328 309.025 586.353 309.025 583.703 309.025 582.276 308.006 582.276 305.254L582.276 292.31 582.888 285.787 582.786 285.787 579.422 305.866C579.015 308.821 575.855 309.127 574.632 309.127 573.409 309.127 570.249 308.923 569.74 305.866L566.173 285.787 566.173 285.787Z" fill="#537D80" transform="matrix(1.00104 0 0 1 2470.04 1672)"/><path d="M362.126 90.9137C338.073 90.9137 318.504 71.9564 318.504 48.6164 318.504 25.2765 338.073 6.31912 362.126 6.31912 387.097 6.31912 406.564 24.8688 406.564 48.6164 406.564 72.2622 386.995 90.9137 362.126 90.9137" fill="#FFFFFF" transform="matrix(1.00104 0 0 1 2470.04 1672)"/><path d="M362.126 12.5363C383.53 12.5363 400.347 28.3341 400.347 48.6164 400.347 68.7968 383.53 84.5946 362.126 84.5946 341.538 84.5946 324.823 68.4911 324.823 48.6164 324.721 28.7418 341.538 12.5363 362.126 12.5363M362.126 0C334.607 0 312.185 21.8111 312.185 48.6164 312.185 75.4217 334.607 97.131 362.126 97.131 390.562 97.131 412.883 75.8294 412.883 48.6164 412.883 21.4035 390.562 0 362.126 0" fill="#537D80" transform="matrix(1.00104 0 0 1 2470.04 1672)"/><g clip-path="url(#clip2)"><path d="M331.244 113.846 391.989 113.846 391.989 306.681 331.244 306.681Z" fill="url(#fill3)" transform="matrix(1.00104 0 0 1 2470.04 1672)"/></g><path d="M385.67 300.464 337.461 300.464 337.461 120.165 385.67 120.165 385.67 300.464ZM385.67 107.629 337.461 107.629C330.531 107.629 324.925 113.235 324.925 120.165L324.925 300.464C324.925 307.395 330.531 313 337.461 313L385.67 313C392.601 313 398.206 307.395 398.206 300.464L398.206 120.165C398.206 113.235 392.601 107.629 385.67 107.629" fill="#537D80" transform="matrix(1.00104 0 0 1 2470.04 1672)"/><path d="M368.445 41.4819C368.445 44.8453 371.299 47.5972 374.663 47.5972 378.026 47.4953 380.778 44.7434 380.676 41.38 380.676 38.0166 377.924 35.2648 374.459 35.2648 371.197 35.2648 368.445 38.0166 368.445 41.4819" fill="#537D80" transform="matrix(1.00104 0 0 1 2470.04 1672)"/><path d="M342.659 41.7877C342.761 45.1511 345.411 47.903 348.876 47.903 352.24 47.8011 354.992 45.0492 354.992 41.6858 354.992 38.3224 352.138 35.5705 348.775 35.5705 345.411 35.5705 342.659 38.3224 342.659 41.7877" fill="#537D80" transform="matrix(1.00104 0 0 1 2470.04 1672)"/><path d="M369.261 56.1586C361.617 61.9681 355.603 57.1778 354.89 56.5663 353.157 55.1394 350.609 55.2413 349.08 56.974 347.653 58.7066 347.755 61.2547 349.488 62.7835 353.463 66.3507 363.655 70.7333 374.255 62.7835 376.089 61.3566 376.395 58.8086 375.07 56.974 373.643 55.1394 371.095 54.8336 369.261 56.1586" fill="#537D80" transform="matrix(1.00104 0 0 1 2470.04 1672)"/><g clip-path="url(#clip4)"><path d="M6.2172 23.9515 287.01 23.9515 287.01 306.783 6.2172 306.783Z" fill="url(#fill5)" transform="matrix(1.00104 0 0 1 2470.04 1672)"/></g><path d="M235.642 30.1687C258.065 30.1687 279.774 41.38 280.691 66.8603L280.691 300.464 231.871 300.464 231.871 108.852C231.871 108.444 231.463 107.935 230.954 107.935 230.546 107.935 230.138 108.138 229.832 108.852 218.723 145.034 184.172 258.574 179.687 269.48 175.305 280.487 164.705 298.731 146.665 298.731 128.523 298.731 117.821 280.385 113.438 269.48 109.158 258.574 74.5044 145.034 63.395 108.852 63.0893 108.24 62.6816 107.935 62.2739 107.935 61.7643 107.935 61.3566 108.342 61.3566 108.852L61.3566 300.464 12.5363 300.464 12.5363 66.8603C13.5555 41.38 35.1628 30.1687 57.5855 30.1687 74.1987 30.1687 91.5253 41.7877 96.9271 61.4585 96.9271 61.4585 141.059 195.077 146.257 214.238L146.257 214.238C146.359 214.238 146.563 214.137 146.767 214.137 146.869 214.137 146.869 214.137 146.97 214.238L146.97 214.238C152.168 195.077 196.3 61.4585 196.3 61.4585 201.702 41.7877 219.131 30.1687 235.642 30.1687M146.97 214.238 146.97 214.238 146.97 214.238M235.642 17.6324C211.894 17.6324 190.695 34.3475 184.274 58.197 183.152 61.6624 161.036 128.421 146.563 173.266 132.192 128.421 110.075 61.5604 108.75 57.5855 102.431 34.3475 81.3332 17.6324 57.4836 17.6324 24.2573 17.6324 1.12113 37.2013 0 66.3507L0 300.464C0 307.395 5.60567 313 12.5363 313L61.3566 313C68.2872 313 73.8929 307.395 73.8929 300.464L73.8929 185.904C87.5504 230.342 99.1694 267.543 101.819 274.066 111.094 297.406 127.911 311.267 146.665 311.267 173.572 311.267 186.924 285.278 191.408 274.066 194.058 267.543 205.473 230.852 219.335 186.006L219.335 300.464C219.335 307.395 224.94 313 231.871 313L280.691 313C287.622 313 293.227 307.395 293.227 300.464L293.227 66.8603C292.106 37.2013 268.97 17.6324 235.642 17.6324" fill="#537D80" transform="matrix(1.00104 0 0 1 2470.04 1672)"/><path d="M468.634 90.9137C444.581 90.9137 425.012 71.9564 425.012 48.6164 425.012 25.2765 444.581 6.31912 468.634 6.31912 493.503 6.31912 513.072 24.8688 513.072 48.6164 513.072 72.2622 493.605 90.9137 468.634 90.9137" fill="#FFFFFF" transform="matrix(1.00104 0 0 1 2470.04 1672)"/><path d="M468.634 12.5363C490.037 12.5363 506.854 28.3341 506.854 48.6164 506.854 68.7968 490.037 84.5946 468.634 84.5946 448.046 84.5946 431.229 68.4911 431.229 48.6164 431.331 28.7418 448.046 12.5363 468.634 12.5363M468.634 0C441.115 0 418.692 21.8111 418.692 48.6164 418.692 75.4217 441.115 97.131 468.634 97.131 497.07 97.131 519.391 75.8294 519.391 48.6164 519.391 21.4035 497.07 0 468.634 0" fill="#537D80" transform="matrix(1.00104 0 0 1 2470.04 1672)"/><g clip-path="url(#clip6)"><path d="M437.65 113.846 498.497 113.846 498.497 306.681 437.65 306.681Z" fill="url(#fill7)" transform="matrix(1.00104 0 0 1 2470.04 1672)"/></g><path d="M492.28 300.464 444.071 300.464 444.071 120.165 492.28 120.165 492.28 300.464ZM492.28 107.629 444.071 107.629C437.14 107.629 431.535 113.235 431.535 120.165L431.535 300.464C431.535 307.395 437.14 313 444.071 313L492.28 313C499.21 313 504.816 307.395 504.816 300.464L504.816 120.165C504.816 113.235 499.21 107.629 492.28 107.629" fill="#537D80" transform="matrix(1.00104 0 0 1 2470.04 1672)"/><path d="M475.463 35.4686C475.565 38.832 478.316 41.5839 481.68 41.5839 485.043 41.5839 487.693 38.7301 487.693 35.3667 487.591 32.0033 484.941 29.2514 481.476 29.2514 478.113 29.3533 475.361 32.1052 475.463 35.4686" fill="#537D80" transform="matrix(1.00104 0 0 1 2470.04 1672)"/><path d="M449.677 35.7744C449.778 39.1378 452.428 41.8896 455.894 41.8896 459.257 41.8896 461.907 39.0358 461.907 35.6724 461.907 32.309 459.155 29.5572 455.69 29.5572 452.326 29.5572 449.575 32.411 449.677 35.7744" fill="#537D80" transform="matrix(1.00104 0 0 1 2470.04 1672)"/><path d="M476.686 64.5162C469.042 70.2237 463.028 65.4334 462.315 64.9238 460.582 63.4969 458.034 63.5989 456.505 65.3315 455.078 67.0642 455.18 69.6122 456.913 71.141 460.888 74.7083 471.08 79.0909 481.68 71.141 483.514 69.8161 483.82 67.1661 482.495 65.3315 481.068 63.4969 478.52 63.1912 476.686 64.5162" fill="#537D80" transform="matrix(1.00104 0 0 1 2470.04 1672)"/></g></g></g></g></svg>